<?xml version="1.0" encoding="utf-8"?>
<!-- Generator: Adobe Illustrator 23.0.3, SVG Export Plug-In . SVG Version: 6.00 Build 0)  -->
<svg version="1.1" id="Calque_1" xmlns="http://www.w3.org/2000/svg" xmlns:xlink="http://www.w3.org/1999/xlink" x="0px" y="0px"
	 viewBox="0 0 67.1 29.4" style="enable-background:new 0 0 67.1 29.4;" xml:space="preserve">
<style type="text/css">
	.st0{fill:#FFFFFF;}
</style>
<path class="st0" d="M52.4,0c-2.6,0-5.1,0.7-7.3,1.9c-1.8-0.8-3.7-1.2-5.8-1.2c-2.6,0-5,0.7-7,1.9c-1.8-0.9-3.8-1.4-6-1.4
	c-2.5,0-4.8,0.7-6.8,1.8c-1.9-1-4-1.6-6.3-1.6C6,1.4,0,7.4,0,14.7C0,22,6,28,13.3,28c2.3,0,4.4-0.6,6.3-1.6c2,1.2,4.3,1.8,6.8,1.8
	c2.2,0,4.2-0.5,6-1.4c2.1,1.2,4.5,1.9,7,1.9c2.1,0,4-0.5,5.8-1.2c2.1,1.2,4.6,1.9,7.3,1.9c8.1,0,14.7-6.6,14.7-14.7S60.5,0,52.4,0z
	 M39.4,2.7c1.3,0,2.6,0.2,3.8,0.6c-1.9,1.6-3.5,3.6-4.4,6c-1-2.2-2.5-4.1-4.4-5.5C35.8,3.1,37.6,2.7,39.4,2.7z M38.2,18.6
	c-0.9,2.7-2.6,4.9-4.9,6.5c-3.6-2.1-6-6-6-10.4s2.4-8.3,6-10.4c2.3,1.5,4,3.8,4.9,6.5c-0.3,1.3-0.5,2.6-0.5,3.9
	C37.7,16.1,37.9,17.4,38.2,18.6z M26.3,2.2c1.8,0,3.5,0.4,5,1c-2.5,1.8-4.5,4.4-5.4,7.4c-0.9-2.9-2.9-5.4-5.4-7
	C22.3,2.7,24.2,2.2,26.3,2.2z M25.7,17.8c-0.8,3.3-2.9,6-5.6,7.7c-3.7-2.2-6.3-6.2-6.3-10.8c0-4.6,2.5-8.7,6.3-10.8
	c2.8,1.7,4.8,4.5,5.6,7.7c-0.2,1-0.4,2-0.4,3.1C25.3,15.8,25.5,16.8,25.7,17.8z M13.3,27.5c-7.1,0-12.8-5.7-12.8-12.8
	c0-7,5.7-12.8,12.8-12.8c2.1,0,4,0.5,5.8,1.4c-3.8,2.4-6.3,6.6-6.3,11.4c0,4.8,2.5,9,6.3,11.4C17.3,27,15.4,27.5,13.3,27.5z
	 M26.3,27.3c-2.1,0-4-0.5-5.8-1.4c2.5-1.6,4.4-4.1,5.4-7c0.9,3,2.9,5.6,5.4,7.4C29.8,26.9,28.1,27.3,26.3,27.3z M39.4,26.8
	c-1.8,0-3.5-0.4-5.1-1.1c1.9-1.4,3.4-3.3,4.4-5.5c0.9,2.4,2.5,4.4,4.4,6C41.9,26.5,40.7,26.8,39.4,26.8z"/>
</svg>
