<?xml version="1.0" encoding="utf-8"?>
<!-- Generator: Adobe Illustrator 23.0.3, SVG Export Plug-In . SVG Version: 6.00 Build 0)  -->
<svg version="1.1" id="Calque_1" xmlns="http://www.w3.org/2000/svg" xmlns:xlink="http://www.w3.org/1999/xlink" x="0px" y="0px"
	 viewBox="0 0 38.2 54.5" style="enable-background:new 0 0 38.2 54.5;" xml:space="preserve">
<style type="text/css">
	.st0{fill:#FFFFFF;}
</style>
<g id="Groupe_54" transform="translate(-274.153 -238.583)">
	<path id="Tracé_276" class="st0" d="M293.3,238.7c-10.6,0-19.1,8.6-19.1,19.1c0,0,0,0,0,0c0,17.4,19.1,35.2,19.1,35.2
		s19.1-17.8,19.1-35.2C312.4,247.3,303.8,238.7,293.3,238.7C293.3,238.7,293.3,238.7,293.3,238.7z M293.3,273.7
		c-8.5,0-15.5-6.9-15.5-15.5c0-8.5,6.9-15.5,15.5-15.5c8.5,0,15.5,6.9,15.5,15.5C308.8,266.8,301.8,273.7,293.3,273.7
		C293.3,273.7,293.3,273.7,293.3,273.7L293.3,273.7z"/>
	<g id="Groupe_49" transform="translate(284.386 249.207)">
		<path id="Rectangle_1117" class="st0" d="M0.6,7.5h17.2l0,0v7.3c0,1.7-1.4,3.1-3.1,3.1H3.7c-1.7,0-3.1-1.4-3.1-3.1V7.5L0.6,7.5z"
			/>
		
			<rect id="Rectangle_1118" x="0.2" y="1.5" transform="matrix(0.9863 -0.165 0.165 0.9863 -0.4383 1.4926)" class="st0" width="17.2" height="3.7"/>
	</g>
</g>
</svg>
