<?xml version="1.0" encoding="utf-8"?>
<!-- Generator: Adobe Illustrator 23.0.3, SVG Export Plug-In . SVG Version: 6.00 Build 0)  -->
<svg version="1.1" id="Calque_1" xmlns="http://www.w3.org/2000/svg" xmlns:xlink="http://www.w3.org/1999/xlink" x="0px" y="0px"
	 viewBox="0 0 61.3 40.2" style="enable-background:new 0 0 61.3 40.2;" xml:space="preserve">
<style type="text/css">
	.st0{fill:#FFFFFF;}
</style>
<g id="Groupe_56" transform="translate(-267.153 -381.684)">
	<path id="Tracé_277" class="st0" d="M326.5,397.1l-10.7,4.7h-2.6v-5.6c0-1.8-1.5-3.3-3.3-3.3c0,0,0,0,0,0h-3.3v-3.3
		c0-1.3-1-2.3-2.3-2.3c0,0,0,0,0,0h-21.1l0.1-0.5c0.3-1.4-0.6-2.8-2-3l-10-2c-1.4-0.3-2.8,0.6-3,2l-1.1,5.8c-0.3,1.4,0.6,2.8,2,3
		l6.4,1.3c-0.6,0.6-0.9,1.4-0.9,2.2v22.4c0,1.8,1.5,3.3,3.3,3.3h31.9c1.8,0,3.3-1.5,3.3-3.3c0,0,0,0,0,0v-5.6h2.6l10.7,4.7
		c0.7,0.3,1.5,0,1.8-0.7c0.1-0.2,0.1-0.4,0.1-0.6v-18c0-0.8-0.6-1.4-1.4-1.4C326.9,397,326.7,397,326.5,397.1z M305.6,414.4
		c0,0.8-0.7,1.5-1.5,1.5h-19.6c-0.8,0-1.5-0.7-1.5-1.5v-14c0-0.8,0.7-1.5,1.5-1.5h19.6c0.8,0,1.5,0.7,1.5,1.5L305.6,414.4z"/>
	<path id="Tracé_278" class="st0" d="M290.8,412.9v-11.1l9.5,5.6l0,0L290.8,412.9z"/>
</g>
</svg>
