<?xml version="1.0" encoding="utf-8"?>
<!-- Generator: Adobe Illustrator 23.0.3, SVG Export Plug-In . SVG Version: 6.00 Build 0)  -->
<svg version="1.1" id="Calque_1" xmlns="http://www.w3.org/2000/svg" xmlns:xlink="http://www.w3.org/1999/xlink" x="0px" y="0px"
	 viewBox="0 0 355.8 355.8" style="enable-background:new 0 0 355.8 355.8;" xml:space="preserve">
<style type="text/css">
	.st0{fill:#152433;}
	.st1{fill:#53FBFA;}
</style>
<g>
	<path class="st0" d="M177.9,355.8C79.6,355.9,0,276.2,0,177.8C0,79.6,79.7,0,177.9,0c98.2,0,177.9,79.7,177.8,177.9
		C355.7,276.2,276.1,355.8,177.9,355.8z M188.3,195.1c1.6-1.8,3-3.5,4.5-5.1c4.3-4.8,8.8-9.2,12.9-14.2c1.2-1.4,2.1-3,2.6-4.8
		c0.4-1.5,0-2.4-1.3-3.1c-1.8-1-3.8-1.4-5.9-1.2c-1,0.1-2,0.4-2.2,1.6c-0.2,0.8-0.7,1.1-1.3,1.4c-1.8,0.7-3.6,1.2-5.4,1.7
		c-1.5,0.4-3,0.8-4.6,0.8c-0.6,0-0.8-0.2-0.6-0.8c0.5-1.3,1-2.6,1.4-4c0.3-1,0.1-1.8-0.4-2.7c-0.9-1.4-2.2-2.5-3.5-3.4
		c-3-2-5.4-1.5-7.4,1.5c-0.1,0.1-0.1,0.2-0.2,0.4c-2,3.3-2.5,6.9-1.7,10.6c0.6,2.9,2,5,5.1,5.6c0.7,0.1,0.4,0.4,0.3,0.8
		c-1,2.2-2.2,4.4-3.7,6.3c-2.5,3.3-5.5,6-9.5,7.3c-0.7,0.2-1,0.2-0.8-0.7c0.7-2.8,1-5.6,1.1-8.4c0.1-4.9-0.9-9.3-4.7-12.7
		c-3.5-3.2-7.5-4.4-12.1-2.3c-0.3,0.1-0.5,0.1-0.8,0.1c-2.3-0.7-4.4,0-6.4,1.2c-3.7,2.4-6.2,5.9-8.1,9.8c-3.5,6.7-5.5,13.8-6.2,21.3
		c-0.4,3.9-0.1,7.8,2,11.4c2.6,4.6,7.4,7.1,12.6,6.3c4.5-0.7,8.2-3.1,11.4-6.2c4.3-4.2,7.4-9.1,9.5-14.7c0.2-0.6,0.5-0.9,1.2-1
		c4.4-0.9,8.1-3.1,11.1-6.4c3-3.3,5-7.3,6.8-11.3c0.3-0.6,0.5-0.9,1.2-1c2.4-0.6,4.6-1.4,6.9-2.2c1.7-0.6,3.3-1.4,4.9-2.3
		c-0.4,0.8-0.9,1.5-1.4,2.3c-3.1,4.3-6.5,8.4-9.9,12.5c-3,3.8-6.1,7.5-8.5,11.7c-0.9,1.6-1.7,3.3-2,5.2c-0.1,0.7,0,1,0.9,1
		c3.5-0.3,6.1,1.4,7.2,4.7c0.3,1,0.5,2,0.6,3.1c0.1,0.7-0.1,1-0.6,1.5c-3.6,2.8-7.1,5.7-10.5,8.8c-4.3,4-8.4,8.1-11.6,13.1
		c-2.3,3.6-3.8,7.5-3.6,11.8c0.2,4.3,3.2,7.1,7.5,6.9c2-0.1,3.9-0.6,5.6-1.5c4.4-2.2,7.7-5.7,10.7-9.5c7.7-10.1,12.7-21.4,15.1-33.9
		c0.1-0.6,0.4-1.1,0.9-1.5c3.1-2.9,6.1-5.9,8.9-9.1c1.5-1.8,3-3.6,4.5-5.4c0.1,1.6,0.3,3.2,0.7,4.7c1.5,6.1,6.2,9.7,12.3,9.2
		c4.3-0.3,8.2-1.7,11.8-4c6.1-3.9,10.5-9.3,13.7-15.7c2.9-5.9,5.1-12.2,7.7-18.3c0.5-1.2,1.1-2,2.3-2.4c1.8-0.7,3.3-2,4.9-3.4
		c-0.2,0.5-0.2,0.9-0.3,1.2c-2.2,7-4.2,14-4.9,21.3c-0.3,3-0.5,6,0.5,9c1.3,4.2,4.5,6.6,8.4,6.2c3.8-0.4,7.1-1.9,10-4.3
		c4.6-3.8,7.6-8.7,10-14c3.5-7.8,6.5-15.7,9.8-23.6c0.5-1.1,0.9-2.3,1.4-3.5c-2.5,0.3-3.8,1.2-4.9,4c-2.5,6.1-5,12.2-7.5,18.3
		c-1.7,4.2-3.8,8.1-7.1,11.3c-1.6,1.5-3.4,2.6-5.6,3.1c-2.1,0.5-3.3-0.4-3.7-2.5c-0.1-0.5-0.2-1-0.1-1.5c0.1-1.4,0.2-2.8,0.5-4.2
		c0.9-4.8,2.6-9.3,4.1-13.9c1.2-3.4,2.5-6.7,3.4-10.2c0.5-1.9,0.1-2.6-1.7-3.3c-2.5-1-5.2-1.2-7.9-1c-1.1,0.1-2,0.5-2.4,1.7
		c-0.6,1.9-2.6,3.1-4.7,3c-0.7,0-0.8-0.2-0.6-0.9c0.5-1.3,0.9-2.5,1.4-3.8c0.3-1,0.2-1.9-0.4-2.8c-1.2-1.7-2.7-3.1-4.5-4
		c-2.3-1.2-4.1-0.9-5.8,1.1c-2.8,3.5-3.5,7.5-2.7,11.8c0.5,2.9,1.8,5.1,5,5.7c0.5,0.1,0.4,0.4,0.2,0.7c-0.5,1.2-1,2.4-1.5,3.6
		c-1.8,4.3-3.3,8.8-5.5,12.9c-2.3,4.3-5.2,8.1-9.4,10.7c-3.1,2-6.4,3.2-10.1,3c-2.2-0.1-3.6-1.3-4.4-3.3c-0.4-1.1-0.5-2.2-0.7-3.3
		c-0.2-1.1,0.1-1.7,1.3-1.8c0.3,0,0.6-0.1,0.9-0.3c4.3-1.7,7.8-4.5,10.9-7.9c4.4-4.7,7.7-10,8.9-16.4c0.4-2,0.6-4.1-0.2-6.1
		c-1.2-2.9-4.4-4.3-8-3.8c-4.9,0.8-9.1,3.1-12.6,6.4c-6.6,6.2-10.4,13.9-12.1,22.7c-0.1,0.7-0.4,1.3-0.8,1.8c-2.9,4-6,7.8-9.4,11.4
		c-1.3,1.4-2.7,2.7-4.1,4.1C196.6,198.3,194.1,194.8,188.3,195.1z M68.9,218c-0.2,2.3,0,4.7,0.3,7.2c0.4,3.5,1.3,6.8,3.4,9.8
		c2.1,3,5.1,5,8.1,7c4.1,2.7,8.2,2.4,12.2-0.4c4.3-3.1,7.6-7.1,10.3-11.6c7.1-11.8,13.4-24,19.2-36.5c7.9-16.9,15.1-34.2,22.4-51.3
		c0.3-0.7,0.5-1.5,0.3-2.3c-0.6-3.3-2.4-5.9-4.5-8.4c-0.9-1-1.9-1.9-3.2-2.5c-1.3-0.6-2.1-0.3-2.6,1c-0.2,0.5-0.4,1-0.5,1.4
		c-4.8,12.1-10.1,24-15.3,36c-7,16.1-14.3,32-22.6,47.4c-2.9,5.3-5.8,10.6-9.4,15.4c-0.9,1.2-1.8,2.4-3,3.3
		c-1.2,0.8-1.9,0.6-2.6-0.7c-0.1-0.3-0.2-0.6-0.3-1c-0.5-2.1-0.3-4.2-0.1-6.3c0.6-5.8,2.1-11.5,3.7-17.1
		c3.6-12.9,7.7-25.6,11.8-38.4c2.9-9,5.9-18,8.1-27.3c0.5-2.2,1.1-4.5,0.8-6.8c-0.2-1.6-1.1-2.5-2.7-2.9c-1.9-0.5-3.8-0.2-5.7,0.1
		c-4.3,0.9-8.4,2.5-12.5,4.1c-7.3,2.8-14.4,5.9-21.9,8.2c-4.5,1.4-9,2.6-13.8,2.5c-2.9,0-5.5-0.8-7.5-3c-0.3-0.3-0.6-0.5-0.9-0.8
		c-1.3-0.8-2.1-0.5-2.3,1c-0.4,3.3,0,6.4,1.3,9.4c2,4.9,5.6,7.6,10.9,7.8c4.6,0.2,8.7-1.2,12.7-3.3c4.6-2.4,8.8-5.6,13-8.6
		c2.1-1.5,4.2-3.1,6.8-4c2-0.7,3.2,0.2,3.3,2.2c0.1,1.3-0.1,2.5-0.4,3.7c-1.2,5.1-3,10.1-4.6,15.1c-3,9.2-6,18.4-8.4,27.8
		C70.9,202.9,69.2,210.2,68.9,218z M289,193.5c0,5.3,3.6,8.2,8,7c4.4-1.2,7.9-6.5,7.3-11c-0.6-4.9-4.8-7.2-9.3-5.1
		C291.1,186.4,289.4,189.8,289,193.5z"/>
	<path class="st1" d="M188.3,195.1c5.9-0.3,8.3,3.2,8.6,9.7c1.5-1.4,2.8-2.8,4.1-4.1c3.4-3.6,6.6-7.4,9.4-11.4
		c0.4-0.6,0.7-1.1,0.8-1.8c1.7-8.8,5.5-16.5,12.1-22.7c3.6-3.3,7.7-5.6,12.6-6.4c3.6-0.6,6.8,0.9,8,3.8c0.9,2,0.6,4.1,0.2,6.1
		c-1.2,6.4-4.5,11.7-8.9,16.4c-3.1,3.4-6.6,6.2-10.9,7.9c-0.3,0.1-0.6,0.3-0.9,0.3c-1.2,0.1-1.5,0.7-1.3,1.8
		c0.2,1.1,0.3,2.2,0.7,3.3c0.7,2.1,2.2,3.2,4.4,3.3c3.7,0.2,7-1.1,10.1-3c4.2-2.6,7.1-6.4,9.4-10.7c2.2-4.1,3.7-8.6,5.5-12.9
		c0.5-1.2,1-2.4,1.5-3.6c0.1-0.3,0.3-0.6-0.2-0.7c-3.1-0.6-4.5-2.9-5-5.7c-0.8-4.3-0.1-8.3,2.7-11.8c1.6-2,3.5-2.4,5.8-1.1
		c1.8,1,3.3,2.3,4.5,4c0.6,0.9,0.7,1.8,0.4,2.8c-0.4,1.3-0.9,2.5-1.4,3.8c-0.2,0.6-0.1,0.8,0.6,0.9c2.1,0.1,4.1-1,4.7-3
		c0.4-1.2,1.3-1.6,2.4-1.7c2.7-0.2,5.3,0.1,7.9,1c1.8,0.7,2.1,1.4,1.7,3.3c-0.8,3.5-2.2,6.8-3.4,10.2c-1.6,4.6-3.3,9.1-4.1,13.9
		c-0.3,1.4-0.4,2.8-0.5,4.2c0,0.5,0,1,0.1,1.5c0.4,2.1,1.7,2.9,3.7,2.5c2.2-0.5,4-1.6,5.6-3.1c3.4-3.1,5.4-7.1,7.1-11.3
		c2.5-6.1,5-12.2,7.5-18.3c1.1-2.8,2.4-3.8,4.9-4c-0.5,1.2-0.9,2.3-1.4,3.5c-3.3,7.9-6.3,15.8-9.8,23.6c-2.4,5.3-5.4,10.2-10,14
		c-2.9,2.4-6.2,3.9-10,4.3c-3.9,0.4-7-2-8.4-6.2c-0.9-3-0.8-6-0.5-9c0.7-7.3,2.7-14.3,4.9-21.3c0.1-0.3,0.2-0.6,0.3-1.2
		c-1.6,1.4-3.1,2.7-4.9,3.4c-1.2,0.5-1.8,1.3-2.3,2.4c-2.5,6.1-4.7,12.4-7.7,18.3c-3.2,6.4-7.6,11.8-13.7,15.7
		c-3.6,2.3-7.5,3.7-11.8,4c-6.1,0.5-10.8-3.1-12.3-9.2c-0.4-1.5-0.6-3-0.7-4.7c-1.5,1.9-3,3.7-4.5,5.4c-2.8,3.2-5.8,6.3-8.9,9.1
		c-0.5,0.4-0.7,0.9-0.9,1.5c-2.4,12.5-7.4,23.8-15.1,33.9c-2.9,3.8-6.3,7.3-10.7,9.5c-1.8,0.9-3.6,1.4-5.6,1.5
		c-4.3,0.2-7.3-2.6-7.5-6.9c-0.2-4.4,1.3-8.2,3.6-11.8c3.1-5,7.2-9.2,11.6-13.1c3.4-3.1,6.9-6,10.5-8.8c0.5-0.4,0.7-0.8,0.6-1.5
		c-0.1-1-0.3-2.1-0.6-3.1c-1.1-3.3-3.6-5-7.2-4.7c-0.9,0.1-1-0.2-0.9-1c0.3-1.9,1.1-3.5,2-5.2c2.4-4.3,5.4-8,8.5-11.7
		c3.4-4.1,6.8-8.2,9.9-12.5c0.5-0.7,1-1.5,1.4-2.3c-1.6,0.9-3.2,1.6-4.9,2.3c-2.3,0.8-4.6,1.7-6.9,2.2c-0.6,0.1-1,0.5-1.2,1
		c-1.7,4.1-3.8,8-6.8,11.3c-3,3.3-6.7,5.5-11.1,6.4c-0.6,0.1-0.9,0.4-1.2,1c-2.1,5.6-5.2,10.5-9.5,14.7c-3.2,3.1-6.9,5.5-11.4,6.2
		c-5.2,0.8-10-1.7-12.6-6.3c-2-3.6-2.3-7.5-2-11.4c0.7-7.5,2.7-14.6,6.2-21.3c2-3.8,4.4-7.4,8.1-9.8c1.9-1.2,4-1.9,6.4-1.2
		c0.3,0.1,0.5,0.1,0.8-0.1c4.6-2.1,8.6-0.9,12.1,2.3c3.8,3.4,4.8,7.8,4.7,12.7c-0.1,2.8-0.4,5.7-1.1,8.4c-0.2,0.9,0,0.9,0.8,0.7
		c4-1.3,7-4,9.5-7.3c1.5-1.9,2.7-4,3.7-6.3c0.1-0.3,0.4-0.6-0.3-0.8c-3.1-0.6-4.5-2.7-5.1-5.6c-0.7-3.8-0.3-7.3,1.7-10.6
		c0.1-0.1,0.1-0.2,0.2-0.4c2-3,4.4-3.5,7.4-1.5c1.4,0.9,2.6,2,3.5,3.4c0.5,0.9,0.7,1.7,0.4,2.7c-0.4,1.4-0.9,2.7-1.4,4
		c-0.2,0.6,0,0.8,0.6,0.8c1.6,0,3.1-0.4,4.6-0.8c1.8-0.5,3.6-1,5.4-1.7c0.6-0.3,1.2-0.6,1.3-1.4c0.3-1.2,1.2-1.5,2.2-1.6
		c2.1-0.2,4,0.2,5.9,1.2c1.4,0.8,1.7,1.6,1.3,3.1c-0.5,1.8-1.4,3.3-2.6,4.8c-4.1,4.9-8.6,9.4-12.9,14.2
		C191.3,191.6,189.9,193.3,188.3,195.1z M183.1,222.6c-3.1,2.5-5.9,4.9-8.6,7.5c-3.3,3.1-6.4,6.3-8.4,10.3c-1.5,3-2.4,6.1-2.4,9.4
		c0,1.6,1.3,2.5,2.8,2.1c1-0.3,1.8-0.8,2.5-1.4c3-2.6,5.1-5.9,7-9.3C179.3,235.5,181.8,229.4,183.1,222.6z M145.4,184.9
		c-0.2,0.3-0.3,0.5-0.3,0.6c-2.7,5.7-4,11.7-4,18c0,2.1,0.2,4.3,1.2,6.2c1.1,2,2.8,2.4,4.6,0.9c0.8-0.6,1.4-1.4,2-2.2
		c2.4-3.5,3.9-7.3,5.1-11.3c0.2-0.6-0.1-0.8-0.6-1.1C149,193.7,146.4,190,145.4,184.9z M222.4,189.8c0.2-0.1,0.3-0.1,0.4-0.2
		c0.2-0.2,0.4-0.4,0.6-0.6c4-5,7.4-10.4,9.9-16.3c0.8-1.8,1.4-3.6,1.5-5.5c0-0.4,0.1-0.9-0.4-1.1c-0.4-0.2-0.8,0-1.1,0.2
		c-1,0.7-1.7,1.5-2.5,2.4c-3.9,4.9-6.4,10.4-7.7,16.5C222.7,186.7,222.4,188.2,222.4,189.8z M155.2,191c0.5-2.6,0.6-5.1,0.4-7.6
		c-0.1-1.3-0.5-2.6-1.2-3.7c-0.3-0.5-0.6-1.3-1.1-1.2c-0.7,0.1-0.9,0.9-1.1,1.6c-0.5,2.3-0.2,4.6,0.6,6.8
		C153.3,188.3,153.9,189.8,155.2,191z"/>
	<path class="st1" d="M68.9,218c0.3-7.8,1.9-15.1,3.8-22.4c2.4-9.4,5.4-18.6,8.4-27.8c1.6-5,3.4-10,4.6-15.1
		c0.3-1.2,0.4-2.5,0.4-3.7c-0.1-2.1-1.3-2.9-3.3-2.2c-2.5,0.9-4.6,2.5-6.8,4c-4.2,3-8.4,6.2-13,8.6c-4,2.1-8.1,3.5-12.7,3.3
		c-5.3-0.2-8.9-3-10.9-7.8c-1.3-3-1.7-6.2-1.3-9.4c0.2-1.5,1-1.8,2.3-1c0.3,0.2,0.7,0.5,0.9,0.8c2,2.2,4.6,3,7.5,3
		c4.8,0.1,9.3-1.1,13.8-2.5c7.4-2.4,14.6-5.5,21.9-8.2c4.1-1.5,8.2-3.2,12.5-4.1c1.9-0.4,3.8-0.7,5.7-0.1c1.5,0.4,2.4,1.3,2.7,2.9
		c0.4,2.3-0.3,4.6-0.8,6.8c-2.2,9.2-5.2,18.2-8.1,27.3c-4,12.8-8.2,25.5-11.8,38.4c-1.6,5.6-3,11.3-3.7,17.1
		c-0.2,2.1-0.5,4.2,0.1,6.3c0.1,0.3,0.2,0.7,0.3,1c0.6,1.3,1.4,1.5,2.6,0.7c1.2-0.9,2.1-2.1,3-3.3c3.6-4.8,6.5-10.1,9.4-15.4
		c8.4-15.4,15.6-31.4,22.6-47.4c5.2-11.9,10.5-23.9,15.3-36c0.2-0.5,0.4-1,0.5-1.4c0.5-1.3,1.3-1.6,2.6-1c1.3,0.6,2.3,1.5,3.2,2.5
		c2.1,2.5,3.9,5.1,4.5,8.4c0.2,0.8,0,1.5-0.3,2.3c-7.4,17.1-14.5,34.4-22.4,51.3c-5.8,12.5-12.2,24.6-19.2,36.5
		c-2.7,4.5-5.9,8.5-10.3,11.6c-4,2.8-8.1,3.1-12.2,0.4c-3-2-6-4-8.1-7c-2.1-2.9-2.9-6.3-3.4-9.8C68.9,222.7,68.8,220.3,68.9,218z"/>
	<path class="st1" d="M289,193.5c0.3-3.7,2.1-7.1,6.1-9.1c4.4-2.2,8.6,0.1,9.3,5.1c0.6,4.6-2.9,9.8-7.3,11
		C292.6,201.7,289,198.8,289,193.5z"/>
	<path class="st0" d="M183.1,222.6c-1.4,6.8-3.8,12.9-7,18.6c-1.9,3.4-4,6.7-7,9.3c-0.8,0.6-1.6,1.2-2.5,1.4
		c-1.5,0.4-2.8-0.5-2.8-2.1c-0.1-3.4,0.9-6.5,2.4-9.4c2-4.1,5.1-7.3,8.4-10.3C177.2,227.6,180.1,225.1,183.1,222.6z"/>
	<path class="st0" d="M145.4,184.9c0.9,5.1,3.6,8.8,8,11.2c0.4,0.3,0.8,0.4,0.6,1.1c-1.3,4-2.7,7.8-5.1,11.3c-0.6,0.8-1.2,1.6-2,2.2
		c-1.8,1.4-3.5,1.1-4.6-0.9c-1-1.9-1.2-4.1-1.2-6.2c0.1-6.3,1.3-12.3,4-18C145.2,185.3,145.3,185.2,145.4,184.9z"/>
	<path class="st0" d="M222.4,189.8c0-1.6,0.3-3.1,0.6-4.6c1.3-6.1,3.8-11.6,7.7-16.5c0.7-0.9,1.5-1.7,2.5-2.4
		c0.4-0.3,0.7-0.4,1.1-0.2c0.5,0.2,0.4,0.7,0.4,1.1c-0.1,2-0.7,3.8-1.5,5.5c-2.5,5.9-5.9,11.3-9.9,16.3c-0.2,0.2-0.4,0.4-0.6,0.6
		C222.7,189.7,222.6,189.7,222.4,189.8z"/>
	<path class="st0" d="M155.2,191c-1.3-1.2-1.9-2.7-2.4-4.2c-0.7-2.2-1.1-4.5-0.6-6.8c0.1-0.7,0.4-1.5,1.1-1.6
		c0.5-0.1,0.8,0.7,1.1,1.2c0.7,1.1,1.1,2.4,1.2,3.7C155.9,185.9,155.7,188.4,155.2,191z"/>
</g>
</svg>
