<?xml version="1.0" encoding="UTF-8"?>
<!-- Generator: Adobe Illustrator 21.1.0, SVG Export Plug-In . SVG Version: 6.00 Build 0)  -->
<svg version="1.1" id="Calque_1" xmlns="http://www.w3.org/2000/svg" xmlns:xlink="http://www.w3.org/1999/xlink" x="0px" y="0px" viewBox="0 0 342.8 342.7" style="enable-background:new 0 0 342.8 342.7;" xml:space="preserve">
<style type="text/css">
	.st0{fill:#0854E8;}
	.st1{fill:#FFFFFF;}
</style>
<path class="st0" d="M320.4,342.7H2.3c-1.2,0-2.3-1-2.3-2.3V21.7C0,9.7,9.7,0,21.7,0h318.8c1.2,0,2.3,1,2.3,2.3v318.1  C342.7,332.7,332.7,342.7,320.4,342.7z"/>
<g>
	<g>
		<path class="st1" d="M67.8,172.6H43.7l-15.1-69.1h17.7l8.7,43l1.2,9.5l1.2-9.5l8.3-43h17.4L67.8,172.6z"/>
		<path class="st1" d="M109.3,173.8h-0.7c-23.4,0-28.9-13-28.9-35.5c0-26.1,11.4-36.1,29.2-36.1h0.8c23.3,0,28.9,13.1,28.9,35.6    C138.6,164,127.2,173.8,109.3,173.8z M109.2,116.3c-8.4,0-11.4,6.1-11.4,21.7c0,14.7,2.5,21.6,11.3,21.6c8.3,0,11.4-6.3,11.4-21.7    C120.4,123.2,118,116.3,109.2,116.3z"/>
		<path class="st1" d="M142.2,172.6v-69.1h17.4v69.1H142.2z"/>
		<path class="st1" d="M199.8,136.1l16.5,36.5h-19.9l-7.2-17.1l-1.8-5.9h-0.1l-1.7,5.7l-6.8,17.3h-18.7l16-36l-14.5-33.1h19.7    l5.5,15.2l1.5,5.2h0.1l1.7-5.4l5.6-15h18.9L199.8,136.1z"/>
		<path class="st1" d="M53.8,245.4c-8.7,0-14.6-0.1-20.1-0.2v-69.1c7-0.1,14.2-0.2,21.3-0.2c22.2,0,31.9,7.9,31.9,34.2    C86.9,233.6,76.8,245.4,53.8,245.4z M55.3,189.4c-0.5,0-2.9,0-4.3,0.1v42.1c1.4,0.1,4,0.2,4.4,0.2c9.9,0,13.6-6.9,13.6-21.5    C69,196.2,65.9,189.4,55.3,189.4z"/>
		<path class="st1" d="M116.1,246.1c-17.7,0-25.5-7.9-25.5-23.9v-46.1h17.3v45.2c0,8.1,2,11.2,8.9,11.2c7.1,0,8.7-3.8,8.7-11.1    v-45.3h17.3v43.7C142.9,235.7,135.4,246.1,116.1,246.1z"/>
		<path class="st1" d="M67.4,317.8l-18-38.6v38.6H33.8v-69.1h19.3l17.3,36.5v-36.5H86v69.1H67.4z"/>
		<path class="st1" d="M119.1,319h-0.7c-23.4,0-28.9-13-28.9-35.5c0-26.1,11.4-36.1,29.2-36.1h0.8c23.3,0,28.9,13.1,28.9,35.6    C148.4,309.2,137,319,119.1,319z M119,261.5c-8.4,0-11.4,6.1-11.4,21.7c0,14.7,2.5,21.6,11.3,21.6c8.3,0,11.4-6.3,11.4-21.7    C130.3,268.4,127.8,261.5,119,261.5z"/>
		<path class="st1" d="M182.9,317.8l-9.3-27.8h-4.5v27.8h-17v-69c6.2-0.2,15.6-0.2,23-0.2c17.5,0,25.3,7.3,25.3,19.8    c0,8.2-3.5,14.8-9.9,17.6l12.2,31.8H182.9L182.9,317.8z M173.5,261.8c-1.4,0-3,0.1-4.5,0.2v15c1.5,0,3,0,4.5,0c7.4,0,9-3.7,9-7.7    C182.6,264.9,181.2,261.8,173.5,261.8z"/>
		<path class="st1" d="M224.6,318c-8.7,0-14.6-0.1-20.1-0.2v-69.1c7-0.1,14.2-0.2,21.3-0.2c22.2,0,31.9,7.9,31.9,34.2    C257.7,306.2,247.5,318,224.6,318z M226,262.1c-0.5,0-2.9,0-4.3,0.1v42.1c1.4,0.1,4,0.2,4.4,0.2c9.9,0,13.6-6.9,13.6-21.5    C239.8,268.8,236.7,262.1,226,262.1z"/>
	</g>
	<g>
		<path class="st1" d="M28.7,100V30.9h17.4v55h15.4v14L28.7,100L28.7,100z"/>
		<path class="st1" d="M95.7,100l-2.3-11H77.2l-2.3,11H58l15.1-69.1h25.5l14.9,69.1L95.7,100L95.7,100z M85.5,46.3h-0.3l-5.9,29.3    h12.2L85.5,46.3z"/>
	</g>
</g>
</svg>