<?xml version="1.0" encoding="utf-8"?>
<!-- Generator: Adobe Illustrator 23.0.3, SVG Export Plug-In . SVG Version: 6.00 Build 0)  -->
<svg version="1.1" id="Allocine" xmlns:svg="http://www.w3.org/2000/svg"
	 xmlns="http://www.w3.org/2000/svg" xmlns:xlink="http://www.w3.org/1999/xlink" x="0px" y="0px" viewBox="0 0 738.6 210.3"
	 style="enable-background:new 0 0 738.6 210.3;" xml:space="preserve">
<style type="text/css">
	.st0{fill:#050301;}
	.st1{fill:#FFFFFF;}
	.st2{fill:#FBC707;}
</style>
<path id="path66" class="st0" d="M738.6,38.3H192.2C174.3,14.3,145.1,0,109.1,0C46.4,0,0,46.1,0,107.9c0,60,43.8,102.4,105.2,102.4
	c34.8,0,64-14.4,82.9-38.2h550.5V38.3z"/>
<path id="path70" class="st0" d="M738.6,38.3H192.2C174.3,14.3,145.1,0,109.1,0C46.4,0,0,46.1,0,107.9c0,60,43.8,102.4,105.2,102.4
	c34.8,0,64-14.4,82.9-38.2h550.5V38.3z"/>
<path id="path136" class="st0" d="M731.1,46.5H189.8C173.5,21.8,145.2,7,109.8,7C51.5,7,8.3,49.9,8.3,107.4
	c0,55.8,40.8,95.3,97.9,95.3c33.3,0,61-14.1,78.6-37.5h546.3V46.5L731.1,46.5z"/>
<path id="path140" class="st1" d="M108.1,22.9c-49,0-85.3,36-85.3,84.3c0,46.9,34.2,80.1,82.3,80.1c48.4,0,83.1-35.6,83.1-85.6
	C188.1,54.9,155.7,22.9,108.1,22.9"/>
<path id="path144" class="st0" d="M107.8,36.1c-41.1,0-71.5,30.3-71.5,70.8c0,39.4,28.7,67.2,69,67.2c40.6,0,69.7-29.9,69.7-71.9
	C174.9,62.9,147.7,36.1,107.8,36.1"/>
<path id="path148" class="st2" d="M61.3,66.3l24.1,96.3l21.5-5.6c0,0-2.8-10.9,8.1-14c11.7-3.4,14.8,8.1,14.8,8.1l21.6-5.8
	l-23.7-96.1l-20.9,5.3c0,0,2.3,11.8-9.3,14.7c-10.9,2.7-14.6-8.4-14.6-8.4L61.3,66.3L61.3,66.3z"/>
<path id="path152" class="st0" d="M89.7,98.1c0,0,11.4-28.1,23.2-31c11.8-2.9,17.4,2.3,14.9,9.6c0,0-5.6,20.8-13.5,17.9
	c-7.5-2.8-7.7-5.6-7.7-5.6s-8.7,16.6-11.2,29.5c0,0,6.4-0.6,9.8,1.5c2.9,1.8,5.1,3.6,0.8,14.8c0,0-4.5,13.2-10.9,11.8
	c-7-1.5-14.1-7-12.2-23.2C84.4,110.7,89.7,98.1,89.7,98.1"/>
<path id="path156" class="st2" d="M234.1,81.7h-0.2l-9.1,32.3h18.5L234.1,81.7z M220.5,128.6l-3.7,12.8h-20.7l22.4-74.6h30.2
	l22.7,74.6h-20.3l-3.9-12.8H220.5z"/>
<path id="path160" class="st2" d="M297.8,124.1h31.1v17.3h-51V66.8h19.9C297.8,66.8,297.8,124.1,297.8,124.1z"/>
<path id="path164" class="st2" d="M355,124.1h31.1v17.3h-51V66.8H355L355,124.1L355,124.1z"/>
<path id="path168" class="st2" d="M438.3,112.4V95.6c0-11-3.7-12.1-14-12.1c-10.3,0-13.7,1.1-14,12.1v16.8
	c0.3,11.1,3.7,12.2,14,12.2C434.7,124.7,438.3,123.6,438.3,112.4 M389.8,114.6V93.5c0-23,14.3-27.4,34.5-27.4
	c20.2,0,34.5,4.4,34.5,27.4v21.1c0,23-14.3,27.4-34.5,27.4C404.1,142,389.8,137.6,389.8,114.6"/>
<path id="path172" class="st2" d="M531.7,113.1v2.2c0,8.2-0.1,15.5-6.9,21.2c-6.8,5.6-15,5.5-23.7,5.5c-20.3,0-35.1-1-35.1-28.3
	V94.4c0-24.7,13.2-28.3,35.1-28.3c20.5,0,30,2.1,30.4,24.5v2.9h-20.5v-2.9c-0.7-6.7-5.4-7.2-12.1-7.2c-11.3,0-12.4,3.5-12.4,14.1
	v11.6c0,11.1,0.5,15.4,12.4,15.4c8.3,0,12.2-0.6,12.2-9.4v-2.2H531.7L531.7,113.1z"/>
<path id="path174" class="st2" d="M560,141.4h-19.9V66.8H560C560,66.8,560,141.4,560,141.4z"/>
<path id="path178" class="st2" d="M589.8,141.4h-19.9V66.8h33.6l21.4,57.3h0.8l-1.2-57.3h19.9v74.6h-33.9l-21.1-57.3h-0.8
	L589.8,141.4L589.8,141.4z"/>
<path id="path182" class="st2" d="M673,96.7h31.8v13.8H673v14.5h34.6v16.3h-54.5V66.8h53.8v16.3H673L673,96.7L673,96.7z"/>
</svg>
